<!DOCTYPE svg PUBLIC "-//W3C//DTD SVG 1.1//EN" "http://www.w3.org/Graphics/SVG/1.1/DTD/svg11.dtd">
<!-- Uploaded to: SVG Repo, www.svgrepo.com, Transformed by: SVG Repo Mixer Tools -->
<svg fill="#000000" width="91px" height="91px" viewBox="0 0 512 512" xmlns="http://www.w3.org/2000/svg" transform="matrix(1, 0, 0, 1, 0, 0)rotate(0)">
<g id="SVGRepo_bgCarrier" stroke-width="0"/>
<g id="SVGRepo_tracerCarrier" stroke-linecap="round" stroke-linejoin="round"/>
<g id="SVGRepo_iconCarrier">
<title>ionicons-v5-q</title>
<path d="M104,496H72a24,24,0,0,1-24-24V328a24,24,0,0,1,24-24h32a24,24,0,0,1,24,24V472A24,24,0,0,1,104,496Z"/>
<path d="M328,496H296a24,24,0,0,1-24-24V232a24,24,0,0,1,24-24h32a24,24,0,0,1,24,24V472A24,24,0,0,1,328,496Z"/>
<path d="M440,496H408a24,24,0,0,1-24-24V120a24,24,0,0,1,24-24h32a24,24,0,0,1,24,24V472A24,24,0,0,1,440,496Z"/>
<path d="M216,496H184a24,24,0,0,1-24-24V40a24,24,0,0,1,24-24h32a24,24,0,0,1,24,24V472A24,24,0,0,1,216,496Z"/>
</g>
</svg>